<svg xmlns="http://www.w3.org/2000/svg" viewBox="0 0 1920 1080"><defs><style>.cls-1{fill:#9bb0b9;}.cls-2{fill:#e9cb56;}.cls-3{fill:#b99c74;}.cls-4{fill:#ac875c;}.cls-5{fill:#fafafa;}.cls-6{fill:#c8d0d6;}.cls-7{fill:#c2c5d6;}.cls-8{fill:#3f514d;}.cls-9{fill:#d26446;}.cls-10{fill:#e9a856;}.cls-11{fill:#e9be56;}</style></defs><g id="Sky"><polygon id="Sky-bg" class="cls-1" points="1920 1079.91 0 1080 0 0 1920 0 1920 1079.91"/></g><g id="Sun"><circle id="Sun-2" data-name="Sun" class="cls-2" cx="181.04" cy="180.95" r="120.64"/></g><g id="Ground"><path id="Ground-2" data-name="Ground" class="cls-3" d="M.23,871.35C533.11,823,1578.71,752.6,1918.29,831.13c0,4,1.71,248.87,1.71,248.87L0,1080.09Z" transform="translate(0 -0.09)"/><path id="Shadow" class="cls-4" d="M1315.82,796.33c-5.86,14.93-.22,32.34,9.81,44.86s23.88,21.26,37.09,30.36c37.44,25.77,108.43,53.57,157.09,97,115.11,6.09,157.82,106.24,177.47,111.55L1920,1080V802.38c-132.62-22.62-263.32-36-397.46-25.74-20.94,1.61-41.85,3.61-62.75,5.61l-68,6.53Z" transform="translate(0 -0.09)"/></g><g id="Clouds"><g id="Cloud_left" data-name="Cloud left"><path class="cls-5" d="M1070.35,409.65a423.9,423.9,0,0,1-148-10.14c-5.44-1.36-11.09-3-15.16-6.8A13.39,13.39,0,0,1,903,381.52a3.79,3.79,0,0,0-3.59-4.26l-161-9.56a3.83,3.83,0,0,0-3.57,5.72,21.25,21.25,0,0,1,2.42,14.71,3.84,3.84,0,0,1-4.09,3c-152.79-12.59-306.81-24.95-459-6.4-27.8,3.39-58.13,7.26-82.84-4.44A3.88,3.88,0,0,1,192,373l26-7a3.85,3.85,0,0,0,1.49-6.67h0a3.87,3.87,0,0,1,2.52-6.82,321.53,321.53,0,0,1,76,9.42,3.82,3.82,0,0,0,3.63-1,69.34,69.34,0,0,1,53.12-19.74,3.66,3.66,0,0,0,4-3.8,6.58,6.58,0,0,1,1.82-4.95c2.93-2.85,7.42-3.14,11.51-3.26l69.63-2.07c3.91.15,10.07-2.26,13.84-5.27L470,309a33.13,33.13,0,0,1,27.78-6.66l25.49,4.36a3.84,3.84,0,0,0,4.47-4.15c-1.4-15,10.7-29.94,25.26-35.57,14.05-5.44,29.51-4.53,44.6-2.71a3.81,3.81,0,0,0,4-5.14c-6.92-20,9.58-45.42,31.46-48.77,23.25-3.56,46.15,13.1,55.55,34.73a3.92,3.92,0,0,0,3.77,2.38c25.27-.94,50.6,13.43,62.68,35.66a3.8,3.8,0,0,0,2.53,1.92A159.36,159.36,0,0,1,823,316.13a3.87,3.87,0,0,0,3.6.61c16.4-5.05,35.89,7.63,38.72,24.37A3.83,3.83,0,0,0,870.4,344c10.84-4.16,22-7.9,33.52-7.93,13.25,0,27.39,5.91,33.28,17.78,3.71,7.48,3.87,16.54,8.64,23.39,5.85,8.4,16.85,11.14,26.92,12.95a490,490,0,0,0,96.12,7.61,3.82,3.82,0,0,1,3.92,3.76l.08,4" transform="translate(0 -0.09)"/><path class="cls-6" d="M497.06,354.14c-10.53,3.5-19.33,10.33-30.8,11.4-19.64,1.82-40.07-13.93-57.68-7.24-7.34,2.78-11.72,8.89-18.93,11.86-15.35,6.3-33.63-4-51.14-5.81-23.51-2.4-45.05,11-68.67,10-9.75-.4-19.82-3.24-29-.93a30,30,0,0,0-12.51,7c-5.63,5-9.64,11.54-8.85,18.29s7.39,13.43,16.05,14.34c3.66.39,7.31-.23,10.94-.63,29.88-3.26,59.28,8.59,89.19,13.21,49.94,7.71,132.79-1,148.72-2.08,14-1,65.33-16.31,71.54-34C568.24,354.55,513,348.84,497.06,354.14Z" transform="translate(0 -0.09)"/><path class="cls-7" d="M753.67,417c21.16-2.77,129.61,2.53,144,3.78,6.76.58,13.77,1.14,20-2,3.9-1.94,6.92-5.4,7.48-9.61,1.25-9.57-10.12-15.31-19.49-18.27,4.85-3.43,4.08-11.16,0-15.46s-10.16-6.05-16-7.61L871,362.83c-6-1.63-12.19-3.28-18.45-3.07-8.11.27-16.31,3.63-24.12,1.51-10.46-2.84-15.62-14-23.79-20.9-10.1-8.54-25.85-10.11-37.54-3.75-11.44-17.78-39.07-23.31-56.85-11.37-10.83,7.27-18.23,19.8-30.91,23.3-14.07,3.88-28.17-5-42.53-7.7-19.89-3.79-41.75,5.59-52.22,22.39-20.43-9.2-44,.71-65.1,8.33a40.52,40.52,0,0,1-10.4,2.68c-4.94.4-9.84-.88-14.77-1.42-15.24-1.68-30.26,3.75-44.57,9.09l-54.94,20.5c-4.61,1.72-9.69,3.81-10.45,9.33a10.25,10.25,0,0,0,3.5,8.87c5.5,5,13,5.19,20.12,5.47a325.6,325.6,0,0,1,65.26,9.32c15.31,3.8,30.6,8.76,46.41,8.75,17.3,0,33.93-5.93,50.19-11.65C605.27,420.05,643,408.09,680,415c10.42,1.95,20.54,5.38,31.09,6.45C725.36,422.92,739.66,420,753.67,417Z" transform="translate(0 -0.09)"/></g><g id="Cloud_right" data-name="Cloud right"><path class="cls-5" d="M882.42,512.06a427.38,427.38,0,0,0,149.25-10.22c5.48-1.37,11.17-3,15.28-6.86a13.5,13.5,0,0,0,4.22-11.28,3.81,3.81,0,0,1,3.62-4.29l162.28-9.64a3.87,3.87,0,0,1,3.6,5.77,21.4,21.4,0,0,0-2.44,14.83,3.86,3.86,0,0,0,4.12,3c154-12.69,309.3-25.15,462.7-6.45,28,3.41,58.6,7.31,83.52-4.48a3.91,3.91,0,0,0-.67-7.29l-26.19-7.07a3.89,3.89,0,0,1-1.51-6.72h0a3.9,3.9,0,0,0-2.53-6.87A324.46,324.46,0,0,0,1661,464a3.85,3.85,0,0,1-3.67-1A69.89,69.89,0,0,0,1603.82,443a3.7,3.7,0,0,1-4-3.84,6.7,6.7,0,0,0-1.83-5c-3-2.87-7.49-3.16-11.61-3.28l-70.19-2.09c-3.94.15-10.15-2.28-14-5.31l-14.64-12.89a33.41,33.41,0,0,0-28-6.72l-25.7,4.39a3.87,3.87,0,0,1-4.51-4.17c1.42-15.14-10.78-30.19-25.45-35.87-14.17-5.48-29.76-4.56-45-2.73a3.84,3.84,0,0,1-4-5.18c7-20.19-9.65-45.78-31.71-49.16-23.43-3.59-46.52,13.2-56,35a3.94,3.94,0,0,1-3.81,2.39c-25.47-.94-51,13.54-63.19,35.95a3.81,3.81,0,0,1-2.55,1.94,160.55,160.55,0,0,0-65.86,31.31,3.92,3.92,0,0,1-3.64.62c-16.53-5.09-36.17,7.69-39,24.56a3.86,3.86,0,0,1-5.18,2.94c-10.92-4.2-22.14-8-33.78-8-13.36,0-27.61,5.95-33.55,17.92-3.74,7.54-3.91,16.67-8.71,23.58-5.9,8.46-17,11.23-27.14,13.06a494,494,0,0,1-96.9,7.66,3.87,3.87,0,0,0-4,3.79l-.07,4.08" transform="translate(0 -0.09)"/><path class="cls-7" d="M1460.35,456.1c10.62,3.53,19.5,10.42,31.05,11.49,19.8,1.84,40.4-14,58.16-7.3,7.39,2.81,11.81,9,19.08,12,15.47,6.35,33.9-4.06,51.56-5.86,23.69-2.42,45.41,11.09,69.22,10.11,9.82-.4,20-3.26,29.24-.93a30.25,30.25,0,0,1,12.61,7c5.67,5.05,9.71,11.63,8.92,18.43s-7.45,13.54-16.18,14.46c-3.69.39-7.37-.24-11-.64-30.12-3.28-59.76,8.66-89.91,13.32-50.35,7.77-133.88-1-149.93-2.1-14.14-1-65.86-16.44-72.12-34.24C1388.6,456.52,1444.28,450.76,1460.35,456.1Z" transform="translate(0 -0.09)"/><path class="cls-6" d="M1201.66,519.51c-21.32-2.8-130.66,2.55-145.18,3.81-6.82.59-13.88,1.16-20.18-2-3.93-2-7-5.44-7.54-9.68-1.26-9.65,10.2-15.43,19.64-18.42-4.89-3.46-4.11-11.25,0-15.59s10.25-6.09,16.08-7.67l18.94-5.11c6.08-1.64,12.28-3.3,18.59-3.09,8.18.27,16.44,3.65,24.32,1.52,10.54-2.87,15.74-14.1,24-21.07,10.18-8.61,26.06-10.2,37.85-3.79,11.53-17.92,39.38-23.49,57.31-11.45,10.92,7.33,18.38,20,31.16,23.48,14.18,3.91,28.4-5,42.87-7.76,20.06-3.81,42.09,5.63,52.64,22.58,20.6-9.28,44.35.71,65.64,8.4a41.56,41.56,0,0,0,10.48,2.7c5,.4,9.92-.89,14.89-1.44,15.37-1.69,30.5,3.79,44.93,9.17l55.39,20.66c4.65,1.74,9.76,3.85,10.53,9.4a10.32,10.32,0,0,1-3.53,9c-5.55,5.06-13.13,5.23-20.29,5.52a327.89,327.89,0,0,0-65.78,9.39c-15.44,3.83-30.85,8.83-46.79,8.82-17.43,0-34.2-6-50.59-11.74-35.72-12.57-73.76-24.62-111.07-17.62-10.5,2-20.71,5.43-31.34,6.5C1230.2,525.44,1215.79,522.47,1201.66,519.51Z" transform="translate(0 -0.09)"/></g></g><g id="Trees"><g id="Tree1"><path class="cls-3" d="M114.82,862.5S83.29,635.73,67.18,475C60.92,510.45,100,775.32,95.67,864,107.43,866.69,114.82,862.5,114.82,862.5Z" transform="translate(0 -0.09)"/><path class="cls-3" d="M2.94,675.58c47.81-12.65,60.48-44.24,60.48-44.24S41,640.8,22,634.67c45-17.3,42-36.13,42-36.13S49,611,35.43,607.38c25.61-14,28.39-39.06,28.39-39.06s-2,11.95-27.56,15.83c12.56-6.94,18.32-23.27,27.21-41.69-1.58,2.49-19.24,16.25-45.38,15.21,29.48-14.78,30.74-25.13,41.29-39.58-4.47,3.09-9.44,9.17-33.06,6.88,25.71-13.11,36.13-41.82,39-51.3.11-.39.21-.74.31-1.07l-.21-2s.16.37.48,1l.26-1.05.2,2c.13.27.28.57.45.89,4.49,8.69,19.93,34.59,47.51,41.91-22.73,7.32-28.71,2.44-33.66.37,13,11.89,16.09,21.76,47.67,29.91-25.43,6.65-45.25-3-47.25-5.15,12.06,16.15,20.69,30.92,34.26,35-25.78,1.69-29.9-9.58-29.9-9.58s7.28,24,34.93,32.17c-12.66,6.51-29.66-2.51-29.66-2.51s.47,19.11,47.75,26.37c-17.51,10.11-41.17,5.65-41.17,5.65s18.16,28.23,67.33,30.34c-37.15,11.56-69-10.91-69-10.91s13.43,39,42.1,49.25c-20.57,3.76-51.55-22.16-51.55-22.16s-29.07,32.5-49.92,33.24C62.47,691.1,68.56,650,68.56,650S41.45,678.91,2.94,675.58Z" transform="translate(0 -0.09)"/></g><g id="Tree2"><path class="cls-3" d="M126.37,870.42s15.09-188,19.94-320.81c8.12,28.69-11.62,248.37-1.91,320.8C133.56,873.38,126.37,870.42,126.37,870.42Z" transform="translate(0 -0.09)"/><path class="cls-3" d="M219,713.68c-45.58-7.33-59.46-32.42-59.46-32.42s21.56,6.33,39,.09c-43.28-11.32-41.65-27-41.65-27s14.87,9.29,27.37,5.43c-24.88-9.83-29.08-30.22-29.08-30.22s2.62,9.67,26.82,11.22c-12.2-4.89-18.64-17.91-28.14-32.45,1.64,1.94,19,12.1,43.47,9.58-28.55-10.25-30.38-18.65-41.19-29.83,4.39,2.25,9.43,6.92,31.4,3.54-24.91-9.11-36.5-32-39.75-39.59-.14-.31-.25-.59-.36-.85l.06-1.66s-.12.31-.38.87c-.21-.54-.31-.85-.31-.85l-.06,1.65-.37.76c-3.65,7.41-16.46,29.63-41.83,37.39,21.76,4.56,27.05.17,31.55-1.84-11.39,10.57-13.68,18.87-42.74,27.56,24.25,3.83,42.19-5.38,43.93-7.23-10.27,14-17.41,26.67-29.85,30.89,24.24-.24,27.39-9.75,27.39-9.75s-5.3,20.13-30.67,28.6c12.27,4.53,27.62-3.94,27.62-3.94s.78,15.69-43,24.66c17,7.17,38.93,2,38.93,2s-15.22,24.31-61.13,29.17c35.52,7.11,63.9-13.34,63.9-13.34S120.3,729,94.1,739.24C113.61,741,141,717.79,141,717.79s29.3,24.8,48.88,24.08c-25.61-11.67-33.92-45-33.92-45S183.16,718.86,219,713.68Z" transform="translate(0 -0.09)"/></g><g id="Tree3"><path class="cls-3" d="M256.74,885.15s-2.33-234.55-11.18-399.68c13.28,34.63,13.4,309,33.52,397.65C266,888,256.74,885.15,256.74,885.15Z" transform="translate(0 -0.09)"/><path class="cls-3" d="M354,680.6c-57.29-4-77.29-33.51-77.29-33.51s27.42,5.43,48.29-4.25c-54.88-9.18-54.62-28.73-54.62-28.73s19.46,9.85,34.52,3.66c-31.93-9.39-39.41-34.18-39.41-34.18s4.33,11.68,34.49,10.9c-15.67-4.69-25.11-20.11-38.5-37.06,2.24,2.22,25,12.86,54.93,7-36.51-9.5-39.73-19.71-54.37-32.34,5.69,2.29,12.46,7.51,39.3.87-31.88-8.51-48.81-35.56-53.68-44.6l-.54-1-.1-2.07s-.13.41-.38,1.12c-.32-.64-.48-1-.48-1l.11,2.05c-.11.3-.23.62-.37,1-3.7,9.59-17.08,38.55-47.64,51,27.46,3.22,33.52-2.81,38.88-5.81-12.94,14.38-14.84,24.91-49.87,38.93,30.46,2,51.66-11.38,53.61-13.87-11.16,18.51-18.58,35-33.53,41.62,30-3,32.84-15.16,32.84-15.16s-4.3,25.53-34.79,38.87c15.71,4.24,33.78-8,33.78-8s2.72,19.36-50.57,35.37c21.92,7,48.44-1.87,48.44-1.87s-16.12,31.82-72.46,43c44.8,4.83,77.67-23.67,77.67-23.67s-8.85,41.75-40.15,57.41c24.37,0,55.67-31.82,55.67-31.82s39.07,27.45,63.24,24.36C288,707.2,274,666.89,274,666.89S310.15,691,354,680.6Z" transform="translate(0 -0.09)"/></g><g id="Tree4"><path class="cls-3" d="M1759.46,775.5S1735.9,606.08,1723.87,486c-4.68,26.5,24.52,224.39,21.28,290.63C1753.94,778.63,1759.46,775.5,1759.46,775.5Z" transform="translate(0 -0.09)"/><path class="cls-3" d="M1676.29,639.15c35.71-9.45,45.18-33,45.18-33s-16.72,7.07-30.92,2.49c33.64-12.93,31.39-27,31.39-27s-11.22,9.33-21.38,6.6A41.06,41.06,0,0,0,1721.77,559s-1.48,8.93-20.59,11.83c9.38-5.19,13.69-17.39,20.33-31.15-1.18,1.86-14.37,12.14-33.9,11.36,22-11,23-18.78,30.84-29.57-3.34,2.31-7,6.85-24.7,5.14,19.21-9.79,27-31.25,29.11-38.33.09-.29.16-.55.23-.79l-.15-1.5.35.76.2-.78.14,1.48.34.67c3.36,6.49,14.89,25.84,35.5,31.31-17,5.47-21.45,1.82-25.15.28,9.7,8.88,12,16.26,35.62,22.34-19,5-33.81-2.27-35.3-3.84,9,12.06,15.45,23.1,25.59,26.16-19.26,1.27-22.34-7.16-22.34-7.16a39.27,39.27,0,0,0,26.1,24c-9.46,4.86-22.16-1.87-22.16-1.87s.35,14.27,35.68,19.7c-13.09,7.54-30.76,4.22-30.76,4.22s13.56,21.09,50.3,22.66c-27.75,8.64-51.53-8.15-51.53-8.15s10,29.1,31.45,36.79c-15.36,2.82-38.51-16.55-38.51-16.55s-21.72,24.29-37.29,24.84c19.59-12.16,24.14-42.84,24.14-42.84S1705.06,641.64,1676.29,639.15Z" transform="translate(0 -0.09)"/></g><g id="Tree5"><path class="cls-3" d="M1806.72,784.8s25.93-150.52,38.87-257.28c5.71,23.64-26.55,199.43-22.15,258.42C1813.2,787.64,1806.72,784.8,1806.72,784.8Z" transform="translate(0 -0.09)"/><path class="cls-3" d="M1902.57,664.38c-41.79-8.81-53.07-29.92-53.07-29.92s19.59,6.48,36.13,2.56c-39.41-11.88-36.91-24.37-36.91-24.37s13.2,8.43,25,6.11c-22.44-9.5-25-26.2-25-26.2s1.82,8,24.16,10.75c-11-4.72-16.15-15.62-24-27.95,1.39,1.67,16.9,11,39.69,10.49-25.81-10.07-27-17-36.29-26.66,3.92,2.1,8.3,6.18,28.89,4.85-22.52-8.93-31.81-28.1-34.34-34.43-.11-.26-.2-.49-.28-.71l.17-1.34s-.14.25-.41.68c-.16-.45-.24-.7-.24-.7l-.16,1.32c-.12.19-.24.38-.39.6-3.85,5.73-17.14,22.83-41.15,27.46,19.88,5.06,25.06,1.86,29.36.53-11.23,7.8-13.88,14.33-41.37,19.49,22.23,4.63,39.45-1.65,41.18-3-10.41,10.64-17.83,20.39-29.64,23,22.5,1.34,26-6.12,26-6.12s-6.18,15.88-30.25,21.1c11.1,4.43,25.86-1.42,25.86-1.42s-.27,12.7-41.47,17.14c15.35,6.86,36,4.09,36,4.09s-15.65,18.62-58.53,19.62c32.49,8,60.09-6.68,60.09-6.68s-11.45,25.78-36.38,32.39c18,2.67,44.81-14.31,44.81-14.31s25.59,21.86,43.78,22.52c-23-11-28.59-38.39-28.59-38.39S1869,666.27,1902.57,664.38Z" transform="translate(0 -0.09)"/></g><g id="Tree-green1"><path class="cls-8" d="M138.57,979.48S159.2,636.62,162.2,392.56c16.19,52.29-11.56,453.6,9.47,586.1C151.9,984.59,138.57,979.48,138.57,979.48Z" transform="translate(0 -0.09)"/><path class="cls-8" d="M301.67,687.67c-84-11.43-110.59-56.88-110.59-56.88s39.86,10.67,71.55-1.55C182.68,610.38,185,581.62,185,581.62s27.71,16.39,50.48,8.74c-46.1-16.94-54.72-54.17-54.72-54.17s5.24,17.62,49.74,19.4c-22.62-8.43-35-32.05-53.11-58.32,3.1,3.49,35.52,21.37,80.23,15.66C204.73,495.39,201,480,180.65,460c8.15,3.94,17.62,12.29,57.8,5.1-46.13-15.62-66.79-56.95-73.09-70.74-.26-.57-2.29-4.76-2.29-4.76s-1.71,4-1.95,4.52c-6.37,13.75-28.9,55.11-75.12,70.48,40.14,7.4,49.65-.89,57.83-4.78-20.45,19.92-24.28,35.25-77.23,52.49,44.67,6,77.2-11.74,80.31-15.22-18.23,26.17-30.76,49.73-53.43,58C138,553.6,143.33,536,143.33,536s-8.83,37.19-55,53.87c22.74,7.77,50.53-8.46,50.53-8.46s2.13,28.77-77.92,47.18c31.62,12.4,71.54,2,71.54,2S105.6,675.84,21.54,686.81c65.52,11.46,116.7-27.32,116.7-27.32s-17.08,60.63-64.71,80.65c35.88,2.39,85.08-41.46,85.08-41.46s54.88,44.22,90.78,42c-47.52-20.29-64.26-81-64.26-81S236.09,698.77,301.67,687.67Z" transform="translate(0 -0.09)"/></g><g id="Tree-green2"><path class="cls-8" d="M1815.26,792.26s-10.58-256.4-9.38-438.76c-12.83,38.84,2.25,339-15.33,437.68C1805.23,795.89,1815.26,792.26,1815.26,792.26Z" transform="translate(0 -0.09)"/><path class="cls-8" d="M1697.54,572c62.9-7.35,83.41-40.92,83.41-40.92s-29.93,7.4-53.42-2.18c60-13,58.68-34.47,58.68-34.47s-20.93,11.85-37.84,5.82c34.69-12,41.65-39.7,41.65-39.7s-4.17,13.1-37.43,13.8c17-6,26.61-23.45,40.49-42.82-2.36,2.56-26.83,15.46-60.15,10.57,39.73-12.36,42.75-23.77,58.22-38.45-6.15,2.83-13.33,8.93-43.25,3,34.68-11,50.7-41.6,55.6-51.81.2-.43,1.77-3.53,1.77-3.53s1.22,3,1.39,3.4c4.57,10.37,20.82,41.58,55.12,53.71-30.08,5-37.07-1.36-43.12-4.38,15,15.16,17.63,26.67,56.95,40.29-33.46,3.82-57.5-9.86-59.78-12.49,13.25,19.8,22.28,37.57,39.09,44.09-33.22-1.77-37-15-37-15s6.06,27.9,40.34,41c-17.09,5.48-37.62-7-37.62-7s-2,21.47,57.53,36.35c-23.78,8.81-53.46.45-53.46.45s19.42,34.21,82,43.59c-49.1,7.64-86.78-22.06-86.78-22.06s11.9,45.54,47.2,61.16c-26.84,1.29-63-32.17-63-32.17s-41.62,32.26-68.4,30.12c35.77-14.48,49.14-59.61,49.14-59.61S1746.37,581.2,1697.54,572Z" transform="translate(0 -0.09)"/></g></g><g id="Tent"><g id="Tent-2" data-name="Tent"><path class="cls-9" d="M1573.47,765.26c-.33-.34-.66-.7-1-1.07l-.68-.77,0-.07a16,16,0,0,1-3.4-11.07c.91-12.54,4.88-41.88,21.95-61.43a36.41,36.41,0,0,1,5.17-5.27s0,0,0,0c-17.57,1.47-100.89-73.9-112.32-110.44l-.34.51c3.41,35.54-33.32,106.89-75.08,131.64,7.57,20.54,19.72,59.13,8.14,72.55-.22.26-.44.5-.68.74a12,12,0,0,1-1.53,1.32c-2.36,5.9-7.78,10.89-7.78,10.89l-26.57,1.15h0l242.18-4.32C1597.83,785.74,1581.7,774,1573.47,765.26Z" transform="translate(0 -0.09)"/><path class="cls-9" d="M1483.19,575.11l.08,0-.07,0Z" transform="translate(0 -0.09)"/><path class="cls-10" d="M1621.53,789.6a102.58,102.58,0,0,0,22.83,1.1h0s0-.53,0-1.5Z" transform="translate(0 -0.09)"/><polygon class="cls-10" points="1483.19 575.03 1483.19 575.03 1483.19 575.03 1483.19 575.02 1483.19 575.03"/><path class="cls-10" d="M1634,714.5c-10.28-35.93-135.61-130-150.74-139.36l-.08,0h0c11.43,36.54,94.75,111.91,112.32,110.44,0,0,0,0,0,0a36.41,36.41,0,0,0-5.17,5.27,57.66,57.66,0,0,1,5.21-5.28s35.8,31.42,34.28,74.35c-16.2,3.88-37.13,2.09-50,.32h0c-9.39-1.24-5.84,5.57-5.84,5.57-.18-.17-.35-.36-.53-.55,8.23,8.78,24.36,20.48,48.06,24.34l22.82-.4C1644.22,781.58,1643.13,746.4,1634,714.5Z" transform="translate(0 -0.09)"/><path class="cls-10" d="M1571.79,763.35l0,.07.68.77-.47-.53Z" transform="translate(0 -0.09)"/><path class="cls-11" d="M1423.56,664.67c17.34-32.53,38.33-66.83,58.86-92.23.18,1,.32,2,.42,3.11.12-.14.23-.29.35-.44h0l5.7-8.56,42.63,23.86-42.63-30.72c-10.29,6.85-75.4,132-188.54,191.38-1.7,10.86,0,46.28,0,46.28l79-3.42V731.07Z" transform="translate(0 -0.09)"/><path class="cls-11" d="M1710,791.06l-2.29-73.7h0L1672.51,692l7.86,96.56-35.7.64c-.19,1-.31,1.51-.31,1.51h0l65.64.37Z" transform="translate(0 -0.09)"/><path class="cls-11" d="M1531.53,590.4l-42.63-23.86-5.7,8.56.07,0c1.68.73,32.08,13.77,70.11,31Z" transform="translate(0 -0.09)"/><path class="cls-11" d="M1413.7,781.88h0l0-.17c.77-9.6-29.39-18.65-29.39-18.65-4.64-4.54,13.13-49.46,39.2-98.39l-44.21,66.4v62.85l26.57-1.15S1411.34,787.78,1413.7,781.88Z" transform="translate(0 -0.09)"/><path class="cls-11" d="M1644.67,789.19l35.7-.64L1672.51,692l-30.31-21.84C1658.52,714.49,1646.79,778.59,1644.67,789.19Z" transform="translate(0 -0.09)"/><path class="cls-11" d="M1644.35,789.2c0,1,0,1.5,0,1.5s.12-.53.31-1.51Z" transform="translate(0 -0.09)"/><polygon class="cls-11" points="1483.19 575.02 1483.19 575.03 1483.19 575.02 1483.19 575.02"/><path class="cls-11" d="M1642.2,670.15l-88.82-64c-38-17.24-68.43-30.28-70.11-31,15.13,9.39,140.46,103.43,150.74,139.36,9.12,31.9,10.21,67.08,10.34,74.7h.32C1646.79,778.59,1658.52,714.49,1642.2,670.15Z" transform="translate(0 -0.09)"/><path class="cls-9" d="M1415.91,779.82c-.22.25-.45.5-.68.74C1415.47,780.32,1415.69,780.08,1415.91,779.82Z" transform="translate(0 -0.09)"/><path class="cls-9" d="M1384.36,763.06s30.16,9.05,29.39,18.65C1417.1,771.71,1397.23,765.53,1384.36,763.06Z" transform="translate(0 -0.09)"/><path class="cls-10" d="M1444.94,632.56l37.91-56.93a.22.22,0,0,0,0-.08C1471.21,590.44,1457.93,610.76,1444.94,632.56Z" transform="translate(0 -0.09)"/><path class="cls-10" d="M1384.36,763.06s22.56-3.28,27.84-3c4.77.26,9.18,13.16,3.71,19.75,11.58-13.42-.57-52-8.14-72.55,41.76-24.75,78.49-96.1,75.08-131.64l-37.91,56.93C1411.37,689,1379.84,755.25,1384.36,763.06Z" transform="translate(0 -0.09)"/><path class="cls-10" d="M1413.76,781.73l-.06.15a12,12,0,0,0,1.53-1.32A9.44,9.44,0,0,1,1413.76,781.73Z" transform="translate(0 -0.09)"/><path class="cls-10" d="M1482.84,575.55c-.1-1.06-.24-2.1-.42-3.11-20.53,25.4-41.52,59.7-58.86,92.23l21.38-32.11C1457.93,610.76,1471.21,590.44,1482.84,575.55Z" transform="translate(0 -0.09)"/><path class="cls-10" d="M1413.75,781.74v0l0,.17h0l.06-.15Z" transform="translate(0 -0.09)"/><path class="cls-10" d="M1444.94,632.56l-21.38,32.11c-26.07,48.93-43.84,93.85-39.2,98.39C1379.84,755.25,1411.37,689,1444.94,632.56Z" transform="translate(0 -0.09)"/><path class="cls-10" d="M1412.2,760.07c-5.28-.29-27.84,3-27.84,3,29.84,1,32.52,10.63,29.4,18.67a9.44,9.44,0,0,0,1.47-1.17c.23-.24.46-.49.68-.74C1421.38,773.23,1417,760.33,1412.2,760.07Z" transform="translate(0 -0.09)"/><path class="cls-10" d="M1413.76,781.73c3.12-8,.44-17.68-29.4-18.67,12.87,2.47,32.74,8.65,29.39,18.65v0Z" transform="translate(0 -0.09)"/><path class="cls-2" d="M1606,486.56h0l0,0Z" transform="translate(0 -0.09)"/><polygon class="cls-2" points="1710 790.98 1710 790.99 1920 802.3 1920 802.3 1710 790.98"/><path class="cls-2" d="M1588.53,622.31c7.54,3.52,15.13,7.1,22.63,10.69a53.34,53.34,0,0,1,14.12,9.88l45.29,25.35,1.94,23.76,35.21,25.37,212.28,34v-.67c-6.66-3.41-16.3-8.32-44.33-15.6-41.35-9.17-148.4-117.68-214.51-188.25.12.76.23,1.57.32,2.44,0,0-23.59,1.65-25.66,0L1606,486.56c-.07.07-80.57,86.25-117.12,73.12l42.63,30.72Z" transform="translate(0 -0.09)"/><path class="cls-2" d="M1625.28,642.88c7.56,7.32,13,16.73,16.92,27.27L1672.51,692l-1.94-23.76Z" transform="translate(0 -0.09)"/><path class="cls-2" d="M1588.53,622.31l-57-31.91,21.85,15.75C1564.61,611.24,1576.51,616.69,1588.53,622.31Z" transform="translate(0 -0.09)"/><path class="cls-2" d="M1611.16,633c-7.5-3.59-15.09-7.17-22.63-10.69l36.75,20.57A53.34,53.34,0,0,0,1611.16,633Z" transform="translate(0 -0.09)"/><path class="cls-2" d="M1642.2,670.15c-3.88-10.54-9.36-19.95-16.92-27.27l-36.75-20.57c-12-5.62-23.92-11.07-35.15-16.16Z" transform="translate(0 -0.09)"/><polygon class="cls-10" points="1707.71 717.28 1707.71 717.28 1709.99 790.98 1710 790.98 1707.72 717.28 1707.71 717.28"/><polygon class="cls-10" points="1707.72 717.28 1710 790.98 1920 802.3 1920 751.25 1707.71 717.28 1707.72 717.28"/><polygon class="cls-11" points="1606.02 486.47 1606.02 486.48 1606.02 486.47 1606.02 486.47"/><path class="cls-11" d="M1656.61,537.58l-50.57-51c.51.58,18.78,21.19,45.88,50.33A6.28,6.28,0,0,1,1656.61,537.58Z" transform="translate(0 -0.09)"/><path class="cls-11" d="M1651.92,536.91c-27.1-29.14-45.37-49.75-45.88-50.33l0,0h0l29.8,62.69S1644.58,538.42,1651.92,536.91Z" transform="translate(0 -0.09)"/><path class="cls-10" d="M1654,539.12l7.19,7.69c-.85-5.13-2.49-7.95-4.55-9.23l0,0Z" transform="translate(0 -0.09)"/><path class="cls-10" d="M1635.82,549.25c2.07,1.65,25.66,0,25.66,0-.09-.87-.2-1.68-.32-2.44l-7.19-7.69Z" transform="translate(0 -0.09)"/><path class="cls-10" d="M1651.92,536.91l2,2.21,2.68-1.5,0,0A6.28,6.28,0,0,0,1651.92,536.91Z" transform="translate(0 -0.09)"/><path class="cls-10" d="M1651.92,536.91c-7.34,1.51-16.1,12.34-16.1,12.34L1654,539.12Z" transform="translate(0 -0.09)"/><path class="cls-11" d="M1571.79,763.35c-1-3.65-1.94-6.82-3-10.48,2-13.71,8.12-45.52,21.54-62-17.07,19.55-21,48.89-21.95,61.43A16,16,0,0,0,1571.79,763.35Z" transform="translate(0 -0.09)"/><path class="cls-11" d="M1573.47,765.26c-.34-.36-.67-.72-1-1.07C1572.81,764.56,1573.14,764.92,1573.47,765.26Z" transform="translate(0 -0.09)"/><path class="cls-11" d="M1571.79,763.35l.23.31.47.53c.31.35.64.71,1,1.07.18.19.35.38.53.55,0,0-3.55-6.81,5.84-5.57h0c12.84,1.77,33.77,3.56,50-.32,1.52-42.93-34.28-74.35-34.28-74.35a57.66,57.66,0,0,0-5.21,5.28c-13.42,16.5-19.56,48.31-21.54,62C1569.85,756.53,1570.75,759.7,1571.79,763.35Z" transform="translate(0 -0.09)"/></g></g></svg>