<svg xmlns="http://www.w3.org/2000/svg" viewBox="0 0 361.31 95.77" preserveAspectRatio="none"><defs><style>.cls-1{fill:#fafafa;}.cls-2{fill:#c2c5d6;}.cls-3{fill:#c8d0d6;}</style></defs><g id="Layer_2" data-name="Layer 2"><g id="Clouds"><g id="Cloud_right" data-name="Cloud right"><path class="cls-1" d="M1,81.66a173.21,173.21,0,0,0,60.52-4.14c2.23-.56,4.54-1.21,6.2-2.78a5.51,5.51,0,0,0,1.71-4.58,1.55,1.55,0,0,1,1.47-1.74l65.81-3.91a1.57,1.57,0,0,1,1.46,2.34,8.73,8.73,0,0,0-1,6,1.57,1.57,0,0,0,1.67,1.21c62.47-5.15,125.44-10.2,187.65-2.62,11.37,1.38,23.77,3,33.87-1.82a1.58,1.58,0,0,0-.27-3l-10.62-2.87a1.57,1.57,0,0,1-.61-2.72h0a1.58,1.58,0,0,0-1-2.79,131.28,131.28,0,0,0-31.08,3.85,1.58,1.58,0,0,1-1.49-.43,28.34,28.34,0,0,0-21.71-8.07A1.48,1.48,0,0,1,292,52.11a2.69,2.69,0,0,0-.75-2c-1.19-1.16-3-1.28-4.7-1.33l-28.47-.84a10.18,10.18,0,0,1-5.66-2.16l-5.94-5.23A13.56,13.56,0,0,0,235.1,37.8l-10.42,1.78a1.57,1.57,0,0,1-1.83-1.69c.58-6.14-4.37-12.24-10.32-14.55-5.74-2.22-12.07-1.85-18.24-1.1a1.55,1.55,0,0,1-1.62-2.1C195.5,12,188.75,1.57,179.81.2c-9.51-1.46-18.87,5.35-22.71,14.19a1.62,1.62,0,0,1-1.55,1A28.61,28.61,0,0,0,129.93,30a1.56,1.56,0,0,1-1,.78,65.07,65.07,0,0,0-26.71,12.7,1.58,1.58,0,0,1-1.47.25C94,41.62,86,46.8,84.88,53.64a1.57,1.57,0,0,1-2.1,1.19c-4.43-1.7-9-3.23-13.7-3.24-5.42,0-11.2,2.42-13.61,7.27-1.52,3.06-1.58,6.76-3.53,9.56-2.39,3.44-6.89,4.56-11,5.3a200.62,200.62,0,0,1-39.3,3.11A1.56,1.56,0,0,0,0,78.36L0,80"/><path class="cls-2" d="M235.41,59c4.31,1.43,7.91,4.22,12.6,4.66,8,.75,16.38-5.69,23.58-3,3,1.14,4.79,3.64,7.74,4.85,6.27,2.57,13.75-1.65,20.91-2.38,9.61-1,18.41,4.5,28.07,4.1,4-.16,8.1-1.32,11.86-.37a12.17,12.17,0,0,1,5.11,2.84c2.3,2.05,3.94,4.72,3.62,7.48s-3,5.49-6.56,5.86a20.9,20.9,0,0,1-4.47-.26c-12.22-1.33-24.24,3.51-36.47,5.4-20.42,3.16-54.29-.41-60.8-.85-5.74-.39-26.71-6.66-29.25-13.88C206.31,59.14,228.9,56.8,235.41,59Z"/><path class="cls-3" d="M130.5,84.68c-8.65-1.13-53,1-58.88,1.55-2.76.24-5.63.47-8.18-.8a5.35,5.35,0,0,1-3.06-3.93c-.51-3.92,4.14-6.26,8-7.47-2-1.41-1.67-4.57,0-6.32s4.15-2.48,6.52-3.12l7.68-2.07a25.89,25.89,0,0,1,7.54-1.25c3.31.11,6.67,1.48,9.86.61,4.28-1.16,6.38-5.71,9.73-8.54A14.08,14.08,0,0,1,125,51.81c4.68-7.27,16-9.53,23.25-4.65,4.42,3,7.45,8.09,12.63,9.52,5.75,1.59,11.52-2,17.39-3.14a21.17,21.17,0,0,1,21.35,9.15c8.35-3.76,18,.29,26.62,3.41a16.82,16.82,0,0,0,4.25,1.09,31.69,31.69,0,0,0,6-.58c6.23-.69,12.37,1.54,18.22,3.72l22.46,8.38c1.88.7,4,1.56,4.27,3.81a4.18,4.18,0,0,1-1.43,3.63c-2.25,2-5.33,2.12-8.23,2.24a132.65,132.65,0,0,0-26.68,3.81c-6.26,1.55-12.51,3.58-19,3.57-7.07,0-13.87-2.42-20.52-4.76-14.48-5.09-29.91-10-45-7.14-4.26.8-8.4,2.2-12.71,2.63C142.08,87.09,136.23,85.88,130.5,84.68Z"/></g></g></g></svg>