<svg xmlns="http://www.w3.org/2000/svg" viewBox="0 0 171.45 200.71">
    <defs>
        <style>
            .sign-cls-1{fill:#764600;}
            .sign-cls-2{fill:#4c3600;}
            .sign-cls-3{font-size:14px;fill:#fff;font-family:NixieOne-Regular, Nixie One;}
            .sign-cls-4{letter-spacing:-0.03em;}
        </style>
    </defs>
    <g id="Layer_2" data-name="Layer 2">
        <g id="Sign-name">
            <polygon class="sign-cls-1" points="0 47.77 9.2 42.79 0.19 38.11 11.55 32.63 2.28 32.44 10.02 27.11 0.03 21.95 2.66 21.35 17.05 21.7 14.52 43.26 2.65 47.29 0 47.77"/>
            <polygon class="sign-cls-1" points="77.61 37.78 99.88 197.24 103.7 200.71 80.44 37.18 77.61 37.78"/>
            <path class="sign-cls-2" d="M80.78,39.49,103.7,200.71l9.65-2.07L86.69,38.89l83-8.29-8.94-4.35,10.72-1.95-11.69-2.6L169.23,14l-7.35-1.88L170.42,0l-7,1.5S17,17.42,2.66,21.35l10,5.16L4.91,31.84l9.26.19L2.81,37.51l9,4.68-9.17,5.1Z"/>
            <text class="sign-cls-3" transform="translate(24.01 37.02) rotate(-6.11)">
                <tspan class="sign-cls-4">Hej Daniel</tspan>
            </text>
        </g>
    </g>
</svg>