<svg xmlns="http://www.w3.org/2000/svg" viewBox="0 0 124.62 263.32" preserveAspectRatio="none">
<defs><style>.cls-1{fill:#3f514d;}</style></defs><g id="Layer_2" data-name="Layer 2">
<g id="Trees"><g id="Tree-green1">
<path class="cls-1" d="M52.06,262.4S61.24,109.88,62.57,1.31c7.2,23.26-5.14,201.78,4.22,260.73C58,264.68,52.06,262.4,52.06,262.4Z"/>
<path class="cls-1" d="M124.62,132.59c-37.37-5.08-49.2-25.3-49.2-25.3s17.73,4.74,31.83-.69C71.68,98.21,72.7,85.41,72.7,85.41s12.33,7.3,22.46,3.9C74.65,81.77,70.82,65.2,70.82,65.2s2.33,7.85,22.12,8.64C82.88,70.09,77.36,59.58,69.32,47.89c1.37,1.56,15.8,9.51,35.69,7-23.52-7.8-25.18-14.63-34.23-23.54,3.63,1.75,7.84,5.46,25.71,2.27C76,26.64,66.78,8.25,64,2.12L63,0s-.76,1.78-.87,2C59.26,8.13,49.24,26.53,28.68,33.36c17.85,3.3,22.08-.39,25.72-2.12C45.31,40.1,43.6,46.92,20,54.59c19.88,2.65,34.35-5.23,35.73-6.77C47.66,59.46,42.08,69.94,32,73.63c19.8-.68,22.18-8.51,22.18-8.51s-3.93,16.54-24.48,24c10.11,3.45,22.48-3.77,22.48-3.77s.94,12.8-34.67,21c14.07,5.52,31.83.87,31.83.87s-12,20.15-49.34,25c29.15,5.1,51.91-12.16,51.91-12.16s-7.6,27-28.78,35.88C39.09,157,61,137.49,61,137.49s24.42,19.67,40.39,18.7c-21.14-9-28.59-36-28.59-36S95.44,137.53,124.62,132.59Z"/>
</g></g></g></svg>