<svg xmlns="http://www.w3.org/2000/svg" viewBox="0 0 124.6 263.36" preserveAspectRatio="none"><defs><style>.cls-1{fill:#3f514d;}</style></defs><g id="Layer_2" data-name="Layer 2"><g id="Trees"><g id="Tree-green2"><path class="cls-1" d="M70.09,262.56S63.8,109.89,64.51,1.32c-7.64,23.12,1.34,201.84-9.13,260.6C64.12,264.73,70.09,262.56,70.09,262.56Z"/><path class="cls-1" d="M0,131.4C37.46,127,49.66,107,49.66,107s-17.81,4.41-31.8-1.3C53.57,98,52.8,85.22,52.8,85.22s-12.46,7-22.53,3.46C50.92,81.53,55.06,65,55.06,65s-2.48,7.8-22.28,8.22c10.13-3.56,15.84-14,24.11-25.5-1.41,1.53-16,9.21-35.82,6.3C44.73,46.7,46.53,39.9,55.74,31.17,52.08,32.85,47.8,36.48,30,33,50.64,26.39,60.17,8.18,63.09,2.1c.12-.25,1.06-2.1,1.06-2.1s.72,1.79.83,2C67.7,8.2,77.37,26.78,97.8,34c-17.92,3-22.08-.81-25.68-2.61,8.92,9,10.5,15.88,33.91,24C86.11,57.66,71.79,49.52,70.43,48,78.32,59.74,83.7,70.32,93.71,74.2c-19.78-1-22-8.92-22-8.92s3.61,16.61,24,24.42c-10.17,3.26-22.4-4.19-22.4-4.19s-1.19,12.78,34.26,21.64c-14.17,5.25-31.83.27-31.83.27s11.56,20.37,48.85,26c-29.24,4.55-51.67-13.13-51.67-13.13S80,147.35,101,156.66c-16,.76-37.49-19.16-37.49-19.16s-24.78,19.21-40.73,17.93c21.3-8.62,29.26-35.49,29.26-35.49S29.08,136.89,0,131.4Z"/></g></g></g></svg>