<svg xmlns="http://www.w3.org/2000/svg" viewBox="0 0 71.9 173.45" preserveAspectRatio="none"><defs><style>.cls-1{fill:#b99c74;}</style></defs><g id="Layer_2" data-name="Layer 2"><g id="Trees"><g id="Tree1"><path class="cls-1" d="M49.52,172.39S35.5,71.51,28.33,0C25.55,15.78,42.93,133.61,41,173.05,46.24,174.25,49.52,172.39,49.52,172.39Z"/><path class="cls-1" d="M0,91.21c21.27-5.63,26.9-19.68,26.9-19.68S17,75.74,8.49,73c20-7.7,18.7-16.07,18.7-16.07S20.5,62.5,14.45,60.87A24.44,24.44,0,0,0,27.08,43.5s-.88,5.31-12.26,7C20.41,47.45,23,40.18,26.93,32c-.7,1.11-8.56,7.23-20.19,6.77,13.11-6.58,13.67-11.18,18.37-17.61-2,1.37-4.2,4.08-14.71,3.06C21.84,18.38,26.47,5.6,27.73,1.39c.05-.18.1-.33.14-.48L27.78,0,28,.48c.08-.3.12-.47.12-.47l.08.88c.06.13.13.26.21.4,2,3.86,8.86,15.39,21.13,18.64-10.11,3.26-12.77,1.09-15,.17,5.77,5.29,7.15,9.68,21.2,13.3-11.31,3-20.13-1.35-21-2.29C40.11,38.3,44,44.87,50,46.69c-11.46.76-13.3-4.26-13.3-4.26A23.37,23.37,0,0,0,52.22,56.74C46.59,59.64,39,55.63,39,55.63s.2,8.49,21.24,11.73C52.48,71.85,42,69.87,42,69.87s8.08,12.56,30,13.5c-16.52,5.14-30.67-4.86-30.67-4.86s6,17.33,18.72,21.91C50.8,102.09,37,90.56,37,90.56S24.09,105,14.81,105.35c11.67-7.24,14.38-25.5,14.38-25.5S17.13,92.69,0,91.21Z"/></g></g></g></svg>