<svg xmlns="http://www.w3.org/2000/svg" viewBox="0 0 84.26 178.25"  preserveAspectRatio="none"><defs><style>.cls-1{fill:#b99c74;}</style></defs><g id="Layer_2" data-name="Layer 2"><g id="Trees"><g id="Tree3"><path class="cls-1" d="M41,177.88S40,73.54,36,.08C41.93,15.49,42,137.55,50.94,177,45.11,179.16,41,177.88,41,177.88Z"/><path class="cls-1" d="M84.26,86.89C58.78,85.12,49.88,72,49.88,72s12.2,2.41,21.48-1.89C47,66,47.06,57.31,47.06,57.31s8.66,4.38,15.36,1.63c-14.2-4.18-17.53-15.21-17.53-15.21s1.92,5.2,15.34,4.85c-7-2.09-11.17-8.94-17.13-16.49,1,1,11.11,5.73,24.44,3.12C51.3,31,49.86,26.44,43.35,20.82c2.53,1,5.54,3.35,17.49.39C46.65,17.43,39.12,5.39,37,1.37L36.72.92l0-.92L36.5.5c-.14-.29-.21-.45-.21-.45l.05.91-.17.44C34.53,5.66,28.57,18.55,15,24.08c12.22,1.43,14.91-1.25,17.29-2.58-5.75,6.39-6.6,11.08-22.18,17.32,13.55.9,23-5.07,23.85-6.17C29,40.88,25.67,48.21,19,51.16c13.36-1.34,14.61-6.74,14.61-6.74S31.72,55.78,18.15,61.71c7,1.89,15-3.55,15-3.55s1.21,8.61-22.49,15.74c9.75,3.1,21.55-.83,21.55-.83S25.06,87.22,0,92.18c19.93,2.15,34.55-10.53,34.55-10.53s-3.93,18.58-17.86,25.54C27.53,107.2,41.46,93,41.46,93s17.38,12.21,28.13,10.84C54.9,98.72,48.66,80.79,48.66,80.79S64.76,91.53,84.26,86.89Z"/></g></g></g></svg>