<svg xmlns="http://www.w3.org/2000/svg" viewBox="0 0 358.4 95" preserveAspectRatio="none">
<defs><style>.cls-1{fill:#fafafa;}.cls-2{fill:#c8d0d6;}.cls-3{fill:#c2c5d6;}</style></defs>
<g id="Layer_2" data-name="Layer 2">
    <g id="Clouds">
        <g id="Cloud_left" data-name="Cloud left">
            <path class="cls-1" d="M357.37,81a172,172,0,0,1-60-4.12c-2.2-.55-4.49-1.19-6.14-2.75a5.43,5.43,0,0,1-1.7-4.54A1.53,1.53,0,0,0,288,67.87L222.75,64a1.56,1.56,0,0,0-1.45,2.33,8.51,8.51,0,0,1,1,6,1.55,1.55,0,0,1-1.65,1.2c-62-5.1-124.43-10.12-186.14-2.6-11.28,1.38-23.58,3-33.6-1.8a1.57,1.57,0,0,1,.27-2.93L11.7,63.31a1.57,1.57,0,0,0,.6-2.71h0a1.57,1.57,0,0,1,1-2.76,130.21,130.21,0,0,1,30.83,3.82,1.59,1.59,0,0,0,1.48-.42,28.09,28.09,0,0,1,21.54-8,1.47,1.47,0,0,0,1.6-1.54,2.69,2.69,0,0,1,.74-2c1.19-1.15,3-1.27,4.67-1.32l28.24-.84A10,10,0,0,0,108,45.38l5.89-5.18a13.43,13.43,0,0,1,11.27-2.7l10.34,1.76a1.55,1.55,0,0,0,1.81-1.68c-.57-6.09,4.34-12.14,10.24-14.42,5.7-2.21,12-1.84,18.09-1.1A1.55,1.55,0,0,0,167.29,20C164.48,11.85,171.17,1.55,180,.2c9.43-1.45,18.72,5.31,22.53,14.08a1.57,1.57,0,0,0,1.53,1,28.4,28.4,0,0,1,25.42,14.47,1.55,1.55,0,0,0,1,.77A64.77,64.77,0,0,1,257,43.08a1.57,1.57,0,0,0,1.46.25c6.66-2,14.56,3.09,15.71,9.88a1.55,1.55,0,0,0,2.08,1.18c4.39-1.69,8.9-3.2,13.59-3.21,5.38,0,11.11,2.39,13.5,7.21,1.5,3,1.57,6.7,3.5,9.48,2.37,3.41,6.83,4.52,10.92,5.25a198.2,198.2,0,0,0,39,3.09,1.55,1.55,0,0,1,1.59,1.52l0,1.64"/>
            <path class="cls-2" d="M124.88,58.49c-4.27,1.42-7.84,4.2-12.49,4.63-8,.74-16.25-5.65-23.39-2.94-3,1.13-4.75,3.61-7.68,4.81-6.23,2.56-13.64-1.63-20.74-2.36-9.53-1-18.27,4.47-27.85,4.07-3.95-.16-8-1.31-11.76-.37a12.16,12.16,0,0,0-5.07,2.82c-2.29,2-3.91,4.68-3.59,7.41s3,5.45,6.51,5.82a20.56,20.56,0,0,0,4.43-.25c12.12-1.33,24,3.48,36.17,5.35,20.26,3.13,53.86-.4,60.32-.84,5.69-.39,26.49-6.61,29-13.77C153.75,58.66,131.35,56.35,124.88,58.49Z"/>
            <path class="cls-3" d="M229,84c8.58-1.12,52.56,1,58.4,1.54,2.75.23,5.59.46,8.12-.8a5.3,5.3,0,0,0,3-3.9c.5-3.88-4.11-6.21-7.91-7.41,2-1.39,1.66-4.53,0-6.27s-4.12-2.45-6.46-3.09l-7.62-2a25.53,25.53,0,0,0-7.48-1.24c-3.29.1-6.62,1.47-9.79.61-4.24-1.16-6.33-5.67-9.64-8.48a14,14,0,0,0-15.23-1.52c-4.64-7.21-15.84-9.45-23-4.61-4.39,2.95-7.4,8-12.54,9.45-5.7,1.57-11.42-2-17.24-3.12a21,21,0,0,0-21.18,9.08c-8.29-3.74-17.84.28-26.4,3.38a16.79,16.79,0,0,1-4.22,1.08,31.91,31.91,0,0,1-6-.58c-6.18-.68-12.27,1.53-18.08,3.69L83.41,78.07c-1.87.7-3.93,1.55-4.24,3.79a4.21,4.21,0,0,0,1.42,3.6c2.24,2,5.29,2.1,8.17,2.22a131.88,131.88,0,0,1,26.46,3.77C121.43,93,127.63,95,134,95c7,0,13.76-2.4,20.36-4.72,14.36-5.06,29.67-9.91,44.68-7.09,4.22.79,8.33,2.19,12.6,2.62C217.47,86.39,223.27,85.19,229,84Z"/>
        </g>
    </g>
</g>
</svg>