<svg xmlns="http://www.w3.org/2000/svg" viewBox="0 0 278.47 141.19"  preserveAspectRatio="none"><defs><style>.cls-1{fill:#d26446;}.cls-2{fill:#e9a856;}.cls-3{fill:#e9be56;}.cls-4{fill:#e9cb56;}</style></defs><g id="Layer_2" data-name="Layer 2"><g id="Tent"><g id="Tent-2" data-name="Tent"><polygon class="cls-1" points="84.6 35.74 35.64 109.28 35.64 137.36 170.16 134.96 165.79 81.19 84.6 35.74"/><path class="cls-2" d="M82,39.57c5.11,16.33,42.35,50,50.2,49.37,0,0,0,0,0,0-7.62,6.17-11,23.2-11.94,30.07l1.35,4.71c4.33,5.07,15.27,13.22,32.42,12.2,0,0,12.49-57.4-14.84-70.48S82,39.57,82,39.57"/><path class="cls-3" d="M183.41,136.09l-29.34-.16s0-18-4.62-34.06-60.77-58.21-67.4-62.3c-18.64,23.75-47,79.15-44.17,84,23.23.77,9.63,13.28,9.63,13.28l-47.17,2s-.76-15.83,0-20.68C50.9,91.66,80,35.74,84.6,32.68l97.79,70.47Z"/><path class="cls-1" d="M37.88,123.57s13.5,4.05,13.13,8.35c3.84-2.47,1.67-9.56-.69-9.69S37.88,123.57,37.88,123.57Z"/><path class="cls-2" d="M81.7,38.38C84.43,53.7,67.58,87.23,48.34,98.64c3.58,9.7,9.45,28.43,2.65,33.34,1.63-4.51-7.33-7.3-13.11-8.41-3.45-3.38,20.84-56.76,43.82-85.19"/><path class="cls-4" d="M278.13,141.19l-94.72-5.1-1-32.94L84.6,32.68C100.94,38.55,136.94,0,136.94,0s92.94,104.94,120.51,111.06c13.79,3.58,17.62,5.88,20.68,7.41C278.9,123.57,278.13,141.19,278.13,141.19Z"/><polygon class="cls-2" points="278.13 118.47 182.38 103.15 183.41 136.09 278.13 141.19 278.13 118.47"/><polyline class="cls-3" points="150.26 28.02 136.94 0 159.57 22.82 150.26 28.02"/><path class="cls-2" d="M150.26,28c.92.74,11.47,0,11.47,0-1.3-12.58-11.47,0-11.47,0"/><path class="cls-3" d="M147.58,122.17c-7.24,1.73-16.59.93-22.33.14h0c-4.2-.55-2.61,2.49-2.61,2.49a11.66,11.66,0,0,1-.88-1,7.12,7.12,0,0,1-1.63-5.09c.45-6.13,2.52-21.27,12.14-29.81C132.26,88.94,148.26,103,147.58,122.17Z"/></g></g></g></svg>