<svg xmlns="http://www.w3.org/2000/svg" viewBox="0 0 84.03 154.19" preserveAspectRatio="none"><defs><style>.cls-1{fill:#b99c74;}</style></defs><g id="Layer_2" data-name="Layer 2"><g id="Trees"><g id="Tree5"><path class="cls-1" d="M27,153.19S42.4,63.56,50.1,0c3.4,14.07-15.81,118.74-13.19,153.87C30.82,154.88,27,153.19,27,153.19Z"/><path class="cls-1" d="M84,81.48c-24.89-5.24-31.6-17.81-31.6-17.81S64.1,67.53,73.94,65.2C50.48,58.12,52,50.68,52,50.68s7.85,5,14.9,3.65C53.51,48.67,52,38.72,52,38.72s1.08,4.74,14.38,6.4c-6.55-2.8-9.61-9.3-14.3-16.64.83,1,10.06,6.53,23.63,6.25-15.37-6-16.07-10.1-21.61-15.87,2.34,1.24,4.95,3.67,17.2,2.88A37.3,37.3,0,0,1,50.82,1.24c-.07-.15-.12-.29-.17-.42l.1-.8s-.08.15-.24.41c-.1-.27-.15-.42-.15-.42L50.27.8,50,1.15C47.74,4.56,39.83,14.74,25.53,17.5c11.84,3,14.93,1.11,17.49.32-6.69,4.64-8.27,8.53-24.64,11.6,13.24,2.76,23.49-1,24.52-1.8C36.7,34,32.29,39.76,25.26,41.31c13.39.8,15.48-3.64,15.48-3.64s-3.68,9.46-18,12.56c6.61,2.64,15.4-.84,15.4-.84S38,57,13.44,59.59C22.58,63.68,34.84,62,34.84,62S25.53,73.12,0,73.71c19.34,4.76,35.78-4,35.78-4S29,85.08,14.11,89C24.81,90.61,40.8,80.5,40.8,80.5S56,93.51,66.86,93.91c-13.69-6.57-17-22.86-17-22.86A53.79,53.79,0,0,0,84,81.48Z"/></g></g></g></svg>