<svg xmlns="http://www.w3.org/2000/svg" viewBox="0 0 67.85 143.31"  preserveAspectRatio="none"><defs><style>.cls-1{fill:#b99c74;}</style></defs><g id="Layer_2" data-name="Layer 2"><g id="Trees"><g id="Tree2"><path class="cls-1" d="M26.63,142.73S33.34,59.12,35.5,0c3.62,12.76-5.16,110.49-.85,142.71A13.31,13.31,0,0,1,26.63,142.73Z"/><path class="cls-1" d="M67.85,73C47.57,69.74,41.39,58.58,41.39,58.58s9.6,2.82,17.34,0c-19.25-5-18.53-12-18.53-12s6.62,4.14,12.18,2.42C41.31,44.67,39.44,35.61,39.44,35.61s1.17,4.3,11.93,5c-5.43-2.18-8.29-8-12.52-14.44.73.86,8.48,5.38,19.34,4.26-12.7-4.55-13.52-8.29-18.32-13.26,2,1,4.19,3.07,14,1.57C42.75,14.68,37.6,4.5,36.15,1.12L36,.74,36,0s-.05.14-.17.39L35.71,0l0,.73c0,.11-.11.22-.17.34-1.62,3.3-7.32,13.18-18.6,16.63,9.67,2,12,.08,14-.81-5.07,4.7-6.09,8.39-19,12.26,10.78,1.7,18.76-2.4,19.54-3.22C26.91,32.17,23.73,37.8,18.2,39.68c10.78-.11,12.18-4.34,12.18-4.34S28,44.3,16.74,48.07C22.2,50.08,29,46.31,29,46.31s.34,7-19.15,11c7.58,3.18,17.31.89,17.31.89S20.42,69,0,71.15c15.8,3.17,28.42-5.93,28.42-5.93S23.93,79.81,12.28,84.38c8.68.79,20.85-9.55,20.85-9.55s13,11,21.74,10.72c-11.39-5.2-15.09-20-15.09-20S51.9,75.31,67.85,73Z"/></g></g></g></svg>